<svg width="32" height="30" viewBox="0 0 32 30" fill="none" xmlns="http://www.w3.org/2000/svg">
<g clip-path="url(#clip0)">
<path d="M16.0852 0C7.67156 0 0.857143 6.81441 0.857143 15.2281C0.857143 22.3847 5.76772 28.3243 12.3929 29.9987C12.3164 29.8082 12.2789 29.5412 12.2789 29.2755V26.6861H10.375C9.34729 26.6861 8.39473 26.2299 7.97612 25.3914C7.48104 24.4777 7.40458 23.0689 6.14875 22.1928C5.76772 21.8883 6.07228 21.5837 6.49089 21.6213C7.29053 21.8494 7.93724 22.3834 8.54636 23.1817C9.15548 23.9813 9.42246 24.1719 10.5642 24.1719C11.0969 24.1719 11.9341 24.1343 12.6962 24.0189C13.1148 22.9523 13.838 22.001 14.7141 21.5448C9.61298 20.9357 7.17648 18.4228 7.17648 14.9961C7.17648 13.5109 7.82319 12.1021 8.8898 10.8839C8.54766 9.70321 8.09017 7.26672 9.04273 6.31545C11.3276 6.31545 12.6975 7.80067 13.0396 8.1804C14.1814 7.79938 15.4385 7.57128 16.7319 7.57128C18.0642 7.57128 19.2825 7.79938 20.4243 8.1804C20.7664 7.79938 22.1376 6.31545 24.4212 6.31545C25.3349 7.22913 24.9162 9.70321 24.5352 10.8839C25.6018 12.0645 26.211 13.5109 26.211 14.9961C26.211 18.4228 23.812 20.9357 18.7498 21.4684C20.1586 22.1916 21.1487 24.247 21.1487 25.7698V29.2379C21.1487 29.352 21.1112 29.466 21.1112 29.5801C27.0495 27.5246 31.3133 21.8909 31.3133 15.2281C31.3133 6.81441 24.4989 0 16.0852 0Z" fill="#9A9A9A"/>
</g>
<defs>
<clipPath id="clip0">
<rect width="30.4562" height="30" fill="white" transform="translate(0.857143)"/>
</clipPath>
</defs>
</svg>
