<svg width="30" height="29" viewBox="0 0 30 29" xmlns="http://www.w3.org/2000/svg">

<path d="M15.3571 0C7.34574 0 0.857143 6.58727 0.857143 14.7205C0.857143 21.6385 5.53293 27.3801 11.8414 28.9988C11.7685 28.8146 11.7328 28.5565 11.7328 28.2997V25.7966H9.91995C8.94136 25.7966 8.03433 25.3556 7.63574 24.545C7.16433 23.6618 7.09153 22.3 5.89574 21.4531C5.53293 21.1587 5.82293 20.8643 6.22153 20.9006C6.98293 21.1211 7.59872 21.6373 8.17872 22.409C8.75872 23.182 9.01293 23.3661 10.1001 23.3661C10.6073 23.3661 11.4045 23.3298 12.1301 23.2183C12.5287 22.1872 13.2173 21.2677 14.0515 20.8267C9.19433 20.2379 6.87433 17.8087 6.87433 14.4962C6.87433 13.0605 7.49012 11.6987 8.50574 10.5211C8.17995 9.37978 7.74433 7.0245 8.65136 6.10493C10.827 6.10493 12.1314 7.54065 12.4571 7.90773C13.5443 7.5394 14.7414 7.31891 15.9729 7.31891C17.2415 7.31891 18.4015 7.5394 19.4887 7.90773C19.8145 7.5394 21.1201 6.10493 23.2945 6.10493C24.1645 6.98816 23.7659 9.37978 23.4031 10.5211C24.4187 11.6624 24.9987 13.0605 24.9987 14.4962C24.9987 17.8087 22.7145 20.2379 17.8943 20.7528C19.2357 21.4518 20.1785 23.4388 20.1785 24.9108V28.2634C20.1785 28.3736 20.1428 28.4838 20.1428 28.5941C25.7971 26.6071 29.8571 21.1612 29.8571 14.7205C29.8571 6.58727 23.3685 0 15.3571 0Z" />

<defs>
<clipPath id="clip0">
<rect width="29" height="29" fill="white" transform="translate(0.857143)"/>
</clipPath>
</defs>
</svg>
