<svg width="702" height="629" viewBox="0 0 702 629" fill="none" xmlns="http://www.w3.org/2000/svg">
<g opacity="0.7">
<path fill-rule="evenodd" clip-rule="evenodd" d="M608.901 494.083C614.423 493.8 621.252 496.983 621.841 502.91C622.269 507.216 622.136 511.51 622.799 515.81C623.328 519.247 624.448 522.546 625.976 525.676C627.445 528.686 630.492 531.249 631.284 534.465C631.789 536.514 631.506 539.396 630.81 541.4C629.963 543.837 630.413 543.645 632.101 545.69C635.408 549.697 638.387 553.806 640.493 558.592C643.526 565.485 645.515 573.543 644.389 581.089C644.246 582.047 644.076 585.486 642.74 585.726C641.248 585.995 641.946 584.028 642.025 583.393C642.533 579.339 642.984 575.796 642.372 571.679C640.008 555.795 628.468 545.33 620.954 531.849C620.541 531.154 619.669 529.499 619.063 528.406C618.106 526.682 617.143 523.401 615.848 522.123C613.407 519.714 615.651 524.556 616.126 525.481C616.728 526.65 617.389 527.893 618.005 528.917C620.824 533.667 623.971 538.851 626.883 543.747C614.29 546.58 605.422 531.631 602.043 521.804C599.259 513.707 595.927 494.776 608.901 494.083" fill="#69A1AC"/>
<path fill-rule="evenodd" clip-rule="evenodd" d="M682.911 479.046C673.68 479.77 667.754 485.784 664.996 494.197C663.509 498.731 663.338 503.388 662.512 508.047C661.269 515.056 658.595 520.368 653.369 525.362C651.75 526.909 650.557 528.497 649.709 530.196C648.025 531.892 646.56 533.812 645.484 536.158C644.108 539.156 643.719 542.751 645.307 545.739C645.734 546.543 646.799 548.155 647.903 548.888C643.77 557.578 641.498 567.097 641.754 576.603C641.909 582.341 642.193 588.082 642.524 593.813C642.613 595.352 643.12 597.893 643.882 595.312C644.58 592.951 643.705 589.246 643.624 586.779C643.23 574.765 642.894 563.842 647.902 552.618C648.427 551.441 648.984 550.274 649.564 549.116C649.598 549.097 649.63 549.073 649.662 549.051C649.684 549.067 649.704 549.086 649.726 549.102C649.763 549.037 649.814 548.959 649.873 548.872C650.039 548.703 650.184 548.489 650.323 548.25C650.767 547.642 651.269 546.928 651.272 546.537C651.272 546.534 651.271 546.529 651.271 546.526C654.371 541.528 657.922 536.806 661.55 532.176C661.522 532.21 665.484 526.883 664.871 529.829C664.576 531.249 661.662 533.952 660.485 535.455C657.882 538.8 654.824 543.039 652.284 547.137C651.942 547.331 651.459 548.284 651.11 548.993C650.917 549.353 650.737 549.715 650.56 550.031C659.562 552.968 666.565 547.052 671.34 540.171C671.346 540.163 671.351 540.155 671.356 540.147C672.809 538.245 674.298 536.357 676.157 534.855C679.26 532.347 682.582 531.904 686.24 530.67C696.216 527.304 700.457 514.538 701.804 505.066C703.324 494.38 695.89 477.993 682.911 479.046" fill="#89C5CC"/>
<path fill-rule="evenodd" clip-rule="evenodd" d="M664.677 449.12C655.203 458.857 650.626 472.362 647.001 485.057C642.953 499.237 640.28 513.636 640.177 528.379C640.11 538.065 639.843 547.812 640.416 557.487C640.619 560.923 640.966 564.365 641.517 567.764C641.563 568.043 642.796 575.633 643.977 573.864C644.649 572.859 642.712 565.991 642.566 564.848C641.743 558.405 641.552 551.915 641.592 545.426C641.658 534.743 641.339 524.113 642.435 513.469C642.599 511.88 642.728 510.21 643.111 508.656C643.516 507.003 642.999 507.724 644.322 507.07C645.606 506.434 647.194 506.525 648.527 505.727C653.814 502.561 656.519 494.429 658.624 489.093C661.032 482.991 662.495 476.484 663.664 470.063C664.522 465.345 665.136 460.656 665.483 455.878C665.593 454.372 665.599 452.797 665.899 451.316C665.98 450.916 666.385 450.21 666.37 449.856C666.339 449.107 665.881 448.667 665.844 448.038C665.447 448.39 665.058 448.751 664.677 449.12" fill="#89C5CC"/>
<path fill-rule="evenodd" clip-rule="evenodd" d="M613.017 578.845C613.017 594.947 626.237 608 642.543 608C658.85 608 672.07 594.947 672.07 578.845" fill="#89C5CC"/>
<path fill-rule="evenodd" clip-rule="evenodd" d="M662.778 553.318C670.085 552.786 678.246 558.607 681.771 564.665C684.613 569.549 684.134 575.963 682.379 581.152C681.204 584.626 678.638 589.58 674.361 589.628C669.009 589.688 668.751 583.157 668.647 579.338C668.51 574.262 667.86 569.84 663.809 566.38C663.309 565.953 662.784 565.553 662.26 565.153C661.794 564.798 661.328 564.443 660.879 564.069C660.808 564.01 660.736 563.95 660.664 563.89C659.231 562.701 657.727 561.452 657.544 559.493C657.278 556.653 658.901 556.142 661.38 556.67C661.46 556.687 661.677 556.768 661.973 556.879C663.238 557.352 665.939 558.363 665.429 557.155C665.236 556.699 664.533 556.339 663.646 556.068C661.351 555.822 658.614 555.536 657.827 555.707C649.335 557.546 646.029 569.162 645.151 576.541C645.056 577.338 644.979 578.137 644.913 578.938H643.352C643.461 577.005 643.604 575.075 643.931 573.164C645.182 565.854 649.096 555.118 657.679 553.931C657.995 553.887 659.16 553.879 660.571 553.961C661.24 553.592 661.989 553.369 662.778 553.318Z" fill="#69A1AC"/>
</g>
<path fill-rule="evenodd" clip-rule="evenodd" d="M560.5 164.673C583.972 164.673 603 154.6 603 142.173C603 129.747 583.972 119.673 560.5 119.673C537.028 119.673 518 129.747 518 142.173C518 154.6 537.028 164.673 560.5 164.673Z" fill="#F2F2F2"/>
<path fill-rule="evenodd" clip-rule="evenodd" d="M610 157.673C610 130.059 587.838 107.673 560.5 107.673C533.162 107.673 511 130.059 511 157.673" fill="#DDE3E9"/>
<rect x="558" width="5" height="115" fill="#DDE3E9"/>
<g opacity="0.7" clip-path="url(#clip0)">
<path fill-rule="evenodd" clip-rule="evenodd" d="M640.744 125C658.289 125 672.512 116.871 672.512 106.842C672.512 96.8139 658.289 88.6843 640.744 88.6843C623.199 88.6843 608.976 96.8139 608.976 106.842C608.976 116.871 623.199 125 640.744 125Z" fill="#F2F2F2"/>
<path fill-rule="evenodd" clip-rule="evenodd" d="M677.744 119.351C677.744 97.0657 661.178 79 640.744 79C620.309 79 603.744 97.0657 603.744 119.351" fill="#DDE3E9"/>
<rect x="638.744" width="5" height="102" fill="#DDE3E9"/>
</g>
<g opacity="0.345889" clip-path="url(#clip1)">
<path fill-rule="evenodd" clip-rule="evenodd" d="M484.296 388.263C481.87 305.916 109.101 125.906 33.774 199.46C-41.5531 273.013 18.2547 422.571 164.666 468.374C311.078 514.176 486.721 470.61 484.296 388.263Z" fill="#F2F2F2"/>
<path fill-rule="evenodd" clip-rule="evenodd" d="M226.488 410.81C227.436 342.368 563.514 183.131 633.104 242.235C702.694 301.339 697.387 437.972 565.007 479.839C432.627 521.707 225.54 479.252 226.488 410.81Z" fill="#DDE3E9"/>
</g>
<path fill-rule="evenodd" clip-rule="evenodd" d="M450.078 328.751C444.624 332.11 439.265 333.733 436.75 333.071C430.442 331.409 429.862 307.832 434.743 298.537C439.623 289.242 464.714 285.191 465.979 303.607C466.418 309.999 463.791 315.703 459.91 320.357L466.869 353.497H446.655L450.078 328.751Z" fill="#B28B67"/>
<path fill-rule="evenodd" clip-rule="evenodd" d="M449.068 305.641C447.319 302.981 445.641 300.952 443.457 299.774C434.57 299.917 433.53 298.29 433.53 292.803C434.965 291.754 440.03 289.987 445.701 289.49C448.595 288.644 452.022 288.803 455.324 290.214C459.4 291.396 462.851 293.941 464.376 298.705C469.891 308.429 465.705 318.553 460.063 322.011C458.562 320.193 457.251 318.431 456.082 316.745C457.021 315.808 457.604 314.499 457.604 313.051C457.604 310.2 455.342 307.888 452.551 307.888C452.346 307.888 452.143 307.901 451.944 307.925C451.819 311.49 451.302 323.552 449.944 327.742C448.344 332.682 439.004 333.895 435.747 333.895C432.933 333.895 433.029 331.173 433.098 329.222C433.108 328.941 433.117 328.676 433.117 328.437C433.117 327.939 433.751 327.94 434.468 327.942C435.399 327.944 436.469 327.946 436.469 326.855C436.469 325.665 434.86 324.753 433.42 323.937C432.522 323.427 431.69 322.955 431.355 322.477C430.3 320.967 429.944 318.93 431.537 318.93C432.408 318.93 433.602 319.443 435.039 320.06C437.209 320.991 439.932 322.16 442.927 322.16C447.876 322.16 449.053 305.845 449.068 305.641Z" fill="#191847"/>
<path fill-rule="evenodd" clip-rule="evenodd" d="M481.32 427.533L451.408 534.78L429.584 613.827H413.667L436.858 427.533H481.32Z" fill="#191847"/>
<path fill-rule="evenodd" clip-rule="evenodd" d="M489.319 427.533C490.011 482.81 492.37 512.959 493.097 517.981C493.823 523.003 504.807 554.952 526.048 613.827H509.559C482.517 557.346 467.422 525.397 464.273 517.981C461.124 510.564 451.405 480.415 436.768 427.533H489.319Z" fill="#2F3676"/>
<path fill-rule="evenodd" clip-rule="evenodd" d="M527.522 629L526.697 611.298L509.371 611.298C497.048 620.149 477.195 625.628 477.195 625.628V629H508.546L519.272 627.314V629H527.522Z" fill="#191847"/>
<path fill-rule="evenodd" clip-rule="evenodd" d="M431.818 629L430.993 611.298L413.667 611.298C401.344 620.149 381.491 625.628 381.491 625.628V629H412.842L423.567 627.314V629H431.818Z" fill="#191847"/>
<path fill-rule="evenodd" clip-rule="evenodd" d="M389.652 445.7L410.046 418.8L419.798 431.521L397.261 449.823C392.462 460.605 389.432 465.401 388.171 464.211C387.108 463.208 387.353 461.906 387.579 460.706C387.754 459.772 387.918 458.9 387.443 458.28C386.358 456.864 381.547 458.455 377.044 460.164C372.541 461.872 373.296 459.39 374.117 458.034C378.01 453.789 383.189 449.678 389.652 445.7ZM533.616 459.857C530.477 455.151 515.373 407.056 515.373 407.056L497.953 409.629C497.953 409.629 521.407 460.46 523.141 463.527C525.394 467.512 523.399 474.058 522.046 478.496C521.837 479.183 521.643 479.819 521.482 480.387C524.321 481.223 525.402 479.565 526.541 477.817C527.828 475.843 529.189 473.755 533.243 475.014C534.81 475.501 536.315 476.126 537.785 476.736C542.864 478.846 547.529 480.784 552.889 476.248C553.739 475.529 554.455 473.178 551.755 471.809C545.028 468.399 535.151 462.158 533.616 459.857Z" fill="#B28B67"/>
<path fill-rule="evenodd" clip-rule="evenodd" d="M455.581 339.576L448.195 339.35C440.129 372.769 422.404 404.628 395.02 434.925L422.385 460.538C448.259 419.282 462.104 378.563 455.581 339.576Z" fill="#191847"/>
<path fill-rule="evenodd" clip-rule="evenodd" d="M499.736 427.501L435.513 436.723C435.513 436.723 450.219 378.172 444.897 339.487L463.865 333.761C482.525 356.549 491.055 386.68 499.736 427.501Z" fill="#DDE3E9"/>
<path fill-rule="evenodd" clip-rule="evenodd" d="M532.789 451.381C514.649 371.574 464.291 333.701 464.291 333.701L464.277 333.717C464.274 333.712 464.271 333.708 464.268 333.704L463.003 333.885C460.744 334.291 456.128 335.166 456.128 335.166L453.324 349.482C456.013 374.541 458.483 451.299 458.483 451.299L500.52 445.263C500.926 448.741 501.251 452.279 501.486 455.876L532.789 451.381Z" fill="#2F3676"/>
<path fill-rule="evenodd" clip-rule="evenodd" d="M500.559 445.599C498.818 430.452 495.555 416.463 491.599 403.948C492.547 419.337 492.672 438 488.848 447.281L500.559 445.599Z" fill="black" fill-opacity="0.1"/>
<path fill-rule="evenodd" clip-rule="evenodd" d="M487.63 420.565L465.517 413.703L466.871 423.545L487.63 420.565Z" fill="white" fill-opacity="0.2"/>
<path fill-rule="evenodd" clip-rule="evenodd" d="M214.841 429.152L242.729 534.242L260.107 622.607L269.505 623.335L247.14 431.655L214.841 429.152Z" fill="#D4A181"/>
<path fill-rule="evenodd" clip-rule="evenodd" d="M184.779 429.798C192.835 464.915 198.809 513.417 198.477 515.816C198.144 518.214 152.631 586.207 152.631 586.207L160.784 592.311C160.784 592.311 218.623 529.292 220.342 522.392C222.06 515.492 218.931 456.754 219.198 421.157L184.779 429.798Z" fill="#D4A181"/>
<path fill-rule="evenodd" clip-rule="evenodd" d="M153.314 583.938C152.792 582.843 151.594 582.363 150.67 582.985C149.384 583.851 147.74 585.065 147.045 586.032C145.828 587.726 144.007 591.459 144.007 591.459C145.802 593.136 176.277 621.6 176.277 621.6C176.277 621.6 180.807 618.221 178.358 615.327C175.909 612.432 174.327 610.465 174.327 610.465L164.683 589.339C164.44 588.807 163.864 588.593 163.405 588.865L160.783 590.417C160.783 590.417 157.353 589.355 155.785 587.89C154.921 587.083 153.982 585.34 153.314 583.938Z" fill="#E4E4E4"/>
<path fill-rule="evenodd" clip-rule="evenodd" d="M258.767 616.358C257.635 615.829 256.248 616.338 255.883 617.534C255.389 619.148 254.835 621.237 254.835 622.478C254.835 624.713 255.488 629 255.488 629C257.763 629 296.383 629 296.383 629C296.383 629 297.977 622.995 294.543 622.516C291.108 622.038 288.837 621.652 288.837 621.652L270.156 612.162C269.62 611.89 268.967 612.149 268.763 612.714L267.642 615.813C267.642 615.813 264.462 617.503 262.475 617.503C261.469 617.503 259.987 616.927 258.767 616.358Z" fill="#E4E4E4"/>
<path fill-rule="evenodd" clip-rule="evenodd" d="M234.086 612.008L278.898 606.466L245.687 431.542H205.55L234.086 612.008Z" fill="#69A1AC"/>
<path fill-rule="evenodd" clip-rule="evenodd" d="M144.511 562.823L173.905 602.468C173.905 602.468 220.346 544.673 228.055 527.045C235.764 509.418 241.915 431.542 241.915 431.542H196.729C196.729 431.542 193.369 500.054 192.199 503.242C191.029 506.43 144.511 562.823 144.511 562.823Z" fill="#89C5CC"/>
<path fill-rule="evenodd" clip-rule="evenodd" d="M221.759 297.699C211.711 297.699 203.566 305.845 203.566 315.893V332.381C203.566 341.496 210.267 349.045 219.012 350.369C219.016 350.444 219.02 350.519 219.024 350.594H242.474C246.288 346.786 242.331 321.919 239.521 311.931C237.712 303.788 230.447 297.699 221.759 297.699Z" fill="#191847"/>
<path fill-rule="evenodd" clip-rule="evenodd" d="M222.112 337.558C227.348 340.783 232.493 342.341 234.908 341.705C240.964 340.11 241.521 317.474 236.835 308.551C232.149 299.627 208.06 295.737 206.846 313.418C206.425 319.555 208.946 325.031 212.672 329.5L205.991 361.316H225.398L222.112 337.558Z" fill="#D4A181"/>
<path fill-rule="evenodd" clip-rule="evenodd" d="M204.278 313.521C204.842 312.952 205.387 312.401 205.928 311.908L205.902 311.266C205.902 311.266 211.992 298.526 221.356 298.526C230.712 298.526 233.67 302.969 236.186 306.747L236.192 306.757C234.877 311.369 230.912 313.235 226.428 315.345C224.498 316.253 222.472 317.207 220.519 318.445C219.754 317.81 218.779 317.429 217.716 317.429C215.26 317.429 213.269 319.464 213.269 321.973C213.269 324.483 215.26 326.517 217.716 326.517C217.784 326.517 217.852 326.516 217.919 326.513C218.813 336.326 218.454 347.533 215.79 350.193H192.34C191.666 338.243 194.692 334.834 197.784 331.351C200.693 328.073 203.66 324.729 203.66 314.143C203.869 313.934 204.075 313.727 204.278 313.521L204.278 313.521Z" fill="#191847"/>
<path fill-rule="evenodd" clip-rule="evenodd" d="M133.201 463.098C136.381 458.681 155.559 411.218 155.559 411.218L169.819 413.828C169.819 413.828 144.914 464.073 143.142 466.962C140.84 470.714 142.531 477.064 143.678 481.369C143.855 482.035 144.02 482.652 144.154 483.203C141.397 483.913 140.416 482.286 139.381 480.571C138.213 478.634 136.977 476.585 133.037 477.662C131.515 478.078 130.047 478.63 128.613 479.168C123.659 481.028 119.109 482.737 114.114 478.209C113.322 477.491 112.714 475.211 115.357 473.984C121.939 470.928 131.647 465.257 133.201 463.098ZM298.007 438.597L272.216 419.319L266.488 433.703L292.04 444.467C299.258 453.11 303.297 456.712 304.155 455.271C304.878 454.057 304.315 452.922 303.797 451.877C303.394 451.063 303.017 450.303 303.296 449.602C303.934 448.002 308.791 448.162 313.393 448.516C317.995 448.87 316.657 446.785 315.548 445.756C310.854 442.898 305.007 440.512 298.007 438.597Z" fill="#B28B67"/>
<path fill-rule="evenodd" clip-rule="evenodd" d="M225.612 350.608L216.964 354.233C217.054 356.541 217.045 359.824 217.034 363.585C217 375.39 216.953 391.907 219.937 397.768C230.276 418.073 251.509 428.648 275.158 440.427C278.328 442.005 281.541 443.606 284.777 445.254L291.287 431.681C290.537 431.138 289.795 430.592 289.058 430.044C290.079 429.677 290.931 428.851 291.303 427.722C291.945 425.776 290.921 423.667 289.017 423.012C285.147 421.68 281.537 421.118 278.219 421.361C253.981 400.498 237.666 376.071 225.612 350.608Z" fill="#DB2721"/>
<path fill-rule="evenodd" clip-rule="evenodd" d="M186.584 443.034C186.584 443.034 224.717 447.314 246.613 443.034C248.422 442.68 248.343 434.715 247.504 432.539C234.443 398.661 225.851 373.861 225.851 350.33C222.257 352.248 213.269 350.905 213.269 350.905C197.166 375.154 189.764 402.978 186.584 443.034Z" fill="#DDE3E9"/>
<path fill-rule="evenodd" clip-rule="evenodd" d="M138.223 443.443C160.693 377.823 206.78 348.923 206.78 348.923L211.148 348.923L215.977 348.923C214.935 362.998 219.829 383.479 225.507 407.239C234.587 445.237 245.672 491.621 237.682 533.59C227.858 535.832 216.314 534.302 203.818 532.645C185.783 530.254 165.762 527.599 146.059 535.641C146.818 518.828 156.426 500.217 165.99 481.69C172.051 469.95 178.094 458.243 181.857 447.05C180.993 446.233 180.539 445.012 180.756 443.756L181.203 441.169C181.482 439.548 182.793 438.371 184.343 438.192C184.615 436.953 184.848 435.723 185.041 434.502C186.029 428.257 185.398 422.086 184.775 415.984C184.433 412.633 184.093 409.304 184.024 405.995C173.194 415.852 160.084 433.039 149.022 462.83L133.75 458.238C134.334 456.022 134.946 453.842 135.584 451.697C133.816 450.702 131.732 445.975 133.221 445.187C134.794 444.354 136.463 443.775 138.223 443.443Z" fill="#FF4133"/>
<path fill-rule="evenodd" clip-rule="evenodd" d="M210.12 349.749L205.948 362.857L214.349 372.683L206.757 380.405L225.125 412.539L202.663 380.469L210.12 372.683L202.663 364L210.12 349.749Z" fill="black" fill-opacity="0.1"/>
<path fill-rule="evenodd" clip-rule="evenodd" d="M219.738 424.932C221.524 424.932 222.972 423.452 222.972 421.627C222.972 419.802 221.524 418.323 219.738 418.323C217.952 418.323 216.503 419.802 216.503 421.627C216.503 423.452 217.952 424.932 219.738 424.932ZM223.781 443.934C225.567 443.934 227.016 442.455 227.016 440.63C227.016 438.804 225.567 437.325 223.781 437.325C221.995 437.325 220.547 438.804 220.547 440.63C220.547 442.455 221.995 443.934 223.781 443.934ZM227.824 459.632C227.824 461.457 226.376 462.936 224.59 462.936C222.803 462.936 221.355 461.457 221.355 459.632C221.355 457.807 222.803 456.327 224.59 456.327C226.376 456.327 227.824 457.807 227.824 459.632Z" fill="black" fill-opacity="0.4"/>
<defs>
<clipPath id="clip0">
<rect width="76.2561" height="124.929" fill="white" transform="translate(602.744)"/>
</clipPath>
<clipPath id="clip1">
<rect width="678" height="323" fill="white" transform="translate(0 175)"/>
</clipPath>
</defs>
</svg>
