<svg width="565" height="805" viewBox="0 0 565 805" fill="none" xmlns="http://www.w3.org/2000/svg">
<path fill-rule="evenodd" clip-rule="evenodd" d="M49.6711 193.44C54.6236 177.861 66.2525 165.667 78.3239 154.494C101.824 132.744 114.462 119.296 122.838 87.479C127.763 68.7668 132.776 48.9376 148.399 35.3617C159.774 25.4754 179.352 17.1692 194.564 24.2485C217.968 37.4213 224.252 64.454 221.892 88.6602C218.967 118.662 204.106 137.161 175.556 148.212C159.47 154.435 148.776 162.647 140.044 176.957C133.059 188.399 128.986 202.727 120.209 213.099C107.086 228.605 90.6642 235.498 70.4228 232.922C89.3817 200.027 111.533 166.823 138.251 139.127C140.752 136.342 155.503 125.685 152.528 120.939C149.251 115.714 134.107 135.342 134.214 135.223C126.45 143.628 119.265 152.559 112.21 161.577C112.228 161.585 112.249 161.59 112.268 161.599C105.004 170.852 97.7979 180.241 90.7291 189.748C87.8702 193.77 85.0879 197.842 82.424 202.017C78.5153 208.143 72.3116 225.53 65.9148 229.297C64.5463 230.103 63.2809 230.553 62.098 230.739C57.7338 237.477 53.4871 244.27 49.4484 251.143C38.9011 269.094 29.8482 288.048 25.6931 308.315C24.4807 314.23 25.3387 336.357 21.057 340.627C13.2285 348.438 15.5219 333.397 15.9899 328.857C19.8784 291.262 34.1906 259.233 54.9712 227.626C48.5873 219.764 47.6655 199.752 49.6711 193.44" fill="#F2F2F2"/>
<path fill-rule="evenodd" clip-rule="evenodd" d="M317.794 211.605C309.541 202.435 289.702 200.879 277.568 201.493C262.554 202.253 247.132 205.699 232.848 209.867C209.317 216.731 186.452 229.259 165.729 241.384C163.231 242.845 132.463 260.294 135.186 263.356C137.885 266.39 168.089 245.663 174.821 242.091C189.186 234.465 202.36 225.448 218.194 220.412C234.589 215.197 251.928 213.132 269.168 213.275C271.381 213.293 278.598 211.839 278.754 214.925C278.907 217.945 266.965 216.369 264.858 216.387C256.161 216.463 247.409 217.235 238.835 218.656C222.77 221.319 207.667 226.684 193.908 234.912C197.747 243.33 206.951 247.211 216.605 245.105C224.949 243.283 233.083 238.792 241.254 237.494C246.881 236.6 252.515 237.131 257.972 238.626C272.366 242.571 280.667 250.652 296.492 245.031C308.899 240.624 329.647 224.793 317.794 211.605" fill="#F2F2F2"/>
<path fill-rule="evenodd" clip-rule="evenodd" d="M353.285 63.8478C371.61 62.5875 392.075 76.3794 400.914 90.7319C408.04 102.304 406.84 117.499 402.438 129.793C399.491 138.024 393.059 149.759 382.332 149.873C368.911 150.017 368.263 134.542 368.004 125.496C367.659 113.469 366.03 102.992 355.871 94.7937C354.617 93.782 353.301 92.8347 351.985 91.8876C350.817 91.0468 349.649 90.2061 348.524 89.3204C348.345 89.1789 348.164 89.0373 347.983 88.8953C344.391 86.0786 340.618 83.1205 340.159 78.4779C339.493 71.7498 343.564 70.5391 349.78 71.789C349.98 71.8293 350.525 72.0219 351.266 72.2839C354.44 73.4063 361.213 75.8015 359.932 72.9382C359.45 71.8594 357.687 71.0045 355.463 70.3639C349.708 69.7801 342.844 69.1028 340.87 69.5074C319.575 73.8659 311.283 101.385 309.082 118.869C308.832 120.849 308.633 122.836 308.46 124.825H304.555C304.829 120.153 305.185 115.488 306.022 110.867C309.161 93.5486 318.974 68.1119 340.498 65.3009C341.292 65.1961 344.213 65.1786 347.751 65.3721C349.428 64.498 351.306 63.9694 353.285 63.8478Z" fill="#F2F2F2"/>
<path fill-rule="evenodd" clip-rule="evenodd" d="M543.674 450.171C538.504 446.019 530.505 448.636 525.317 451.066C523.317 452.003 518.21 455.003 514.425 458.384C514.92 456.035 515.361 453.665 515.746 451.275C517.327 441.45 518.407 431.437 518.914 421.481C519.046 418.884 518.859 415.982 518.669 413.042L518.669 413.04C518.604 412.044 518.54 411.045 518.487 410.051C518.695 409.816 518.834 409.492 518.892 409.053C518.914 409.235 518.927 409.382 518.937 409.493C518.953 409.675 518.961 409.766 518.989 409.773C519.016 409.779 519.064 409.703 519.159 409.549C519.196 409.49 519.24 409.418 519.294 409.336C523.117 403.319 526.325 396.537 526.749 389.073C527.108 382.743 522.123 370.752 515.119 379.026C511.986 382.721 512.866 408.733 517.59 410.339C516.35 418.954 514.786 427.554 512.821 436.044C512.523 435.988 512.22 435.982 511.92 436.024C511.943 433.912 511.94 431.608 511.856 430.815C511.132 423.987 505.665 410.114 497.025 412.782C490.385 414.833 494.478 423.356 496.749 427.088C500.404 433.096 504.529 435.704 509.751 438.837C509.859 440.126 510.652 440.877 511.588 441.123C508.13 454.833 503.575 468.201 497.603 480.824L497.441 480.02L497.441 480.019C496.669 476.181 495.769 471.707 495.204 470.766C492.25 465.842 485.72 459.82 479.721 462.714C467.12 468.799 480.857 486.419 491.603 488.359C492.051 489.008 492.525 489.53 493.028 489.831C490.95 493.64 488.729 497.37 486.351 501.003C482.786 506.468 478.953 511.915 474.933 517.329C474.798 513.085 473.179 503.624 472.724 502.606C469.955 496.429 462.001 490.059 455.572 494.426C448.341 499.349 454.931 508.706 459.073 512.944C460.771 514.681 469.162 521.053 472.116 521.09C462.404 533.857 451.681 546.402 440.777 558.492C441.669 553.069 442.816 538.132 442.68 536.473C441.98 527.913 436.588 514.209 426.042 517.518C415.809 520.722 420.375 534.955 423.897 541.744C426.03 545.852 428.976 550.029 432.524 552.9C433.163 553.417 433.997 553.84 434.83 554.262L434.83 554.262C435.835 554.772 436.837 555.28 437.493 555.951C438.078 556.549 438.259 557.234 438.438 557.914C438.627 558.632 438.814 559.343 439.474 559.939C433.581 566.444 427.647 572.813 421.797 579.006C419.037 581.929 416.226 584.794 413.388 587.624C411.829 586.942 409.612 587.828 409.733 590.143C409.751 590.479 409.825 590.769 409.926 591.036C407.775 593.137 405.61 595.222 403.428 597.286C403.476 596.683 403.46 595.833 403.356 594.659C404.937 597.015 404.862 593.589 404.806 590.978C404.786 590.055 404.768 589.234 404.826 588.805C405.053 587.128 405.349 585.467 405.643 583.808L405.643 583.808C406.273 580.265 406.901 576.734 406.86 573.076C406.772 565.312 402.057 552.285 392.214 556.883C383.163 561.103 386.489 572.619 389.925 579.842C392.1 584.413 395.071 588.497 398.175 592.407C398.729 593.106 399.344 594.05 399.952 594.986C400.856 596.374 401.746 597.743 402.403 598.253C394.01 606.151 385.417 613.815 376.825 621.48C372.976 624.913 369.127 628.347 365.295 631.801C365.126 631.04 364.986 630.286 364.865 629.581C365.106 629.866 365.433 630 365.853 629.975C365.963 629.392 366.123 628.618 366.315 627.689C368.658 616.34 375.796 581.772 356.255 588.424C341.938 593.313 352.127 623.455 362.839 634.017C356.369 639.882 349.96 645.822 343.701 651.941C339.173 656.368 334.779 660.948 330.552 665.681C332.73 659.544 334.777 651.597 333.405 645.265C331.408 636.049 322.135 627.329 313.115 632.547C301.87 639.079 310.556 648.063 318.7 656.487C322.859 660.788 326.876 664.944 328.028 668.553C314.595 684.081 303.137 701.34 295.501 721.014C287.196 742.409 279.508 771.167 283.858 795.139C283.04 784.601 286.395 771.381 288.752 762.096C289.073 760.832 289.376 759.641 289.646 758.539C293.186 744.139 298.231 730.133 304.893 717.028C315.563 696.039 329.682 678.235 345.993 662.079C349.72 663.451 353.77 665.985 357.124 668.084L357.124 668.084L357.125 668.084C359.182 669.371 360.978 670.494 362.276 671.086C368.54 673.937 380.562 678.033 384.526 669.112C388.423 660.34 378.408 655.402 372.204 653.418C366.208 651.503 360.807 651.718 355.223 653.261C363.858 645.222 372.705 637.439 381.55 629.657L381.556 629.652C383.181 628.222 384.806 626.793 386.429 625.363C388.687 627.309 391.183 630.121 393.832 633.107C402.242 642.583 412.206 653.809 421.057 644.681C434.414 630.906 408.768 616.803 397.859 617.871C396.52 618.001 395.224 618.294 393.962 618.695C405.065 608.8 415.995 598.7 426.329 587.887C428.19 588.248 431.156 591.13 434.721 594.592C442.731 602.373 453.758 613.084 462.024 604.694C467.991 598.638 465.919 589.176 460.124 583.753C454.306 578.308 445.89 578.295 438.742 580.106C435.651 580.884 432.803 582.379 430.148 584.202C430.101 584.204 430.056 584.207 430.011 584.21L429.926 584.214C429.89 584.216 429.854 584.218 429.817 584.22C439.986 573.467 450.217 562.471 460.068 551.099C460.241 551.158 460.418 551.218 460.595 551.279C461.194 552.05 462.195 552.334 463.111 552.166C463.616 552.349 464.133 552.538 464.659 552.73C472.492 555.588 482.559 559.261 490.355 557.708C496.093 556.566 501.289 551.676 496.415 545.627C492.452 540.708 481.736 541.385 476.512 542.534C473.963 543.096 471.19 544.734 468.408 546.379C467.239 547.07 466.068 547.762 464.912 548.375C464.61 547.737 464.084 547.326 463.486 547.128C473.214 535.7 482.494 523.874 490.907 511.531C493.463 511.954 496.3 513.141 499.227 514.365C506.269 517.31 513.826 520.471 519.228 513.719C527.202 503.749 512.144 497.879 504.995 498.809C502.581 499.123 500.202 499.836 497.905 500.78C504.024 490.616 508.69 479.747 511.958 468.327C511.99 468.344 512.02 468.362 512.049 468.379L512.049 468.38C512.096 468.407 512.142 468.435 512.199 468.461C512.15 468.432 512.106 468.403 512.062 468.373C512.03 468.351 511.998 468.33 511.963 468.308C512.29 467.166 512.602 466.018 512.9 464.867C513.458 464.541 513.979 464.302 514.229 464.204C510.986 466.549 524.696 467.736 527.264 467.959C532.941 468.449 540.544 468.647 544.696 463.773C548.182 459.679 547.963 453.616 543.674 450.171ZM283.249 795.17C283.498 798.643 284.103 801.824 285.225 804.449C284.381 801.462 283.732 798.357 283.249 795.17Z" fill="#F2F2F2"/>
</svg>
