<svg width="30" height="30" viewBox="0 0 30 30" fill="none" xmlns="http://www.w3.org/2000/svg">
<g clip-path="url(#clip0)">
<path d="M0 2.20045C0 1.01902 0.989075 0.0600586 2.20832 0.0600586H27.6717C28.8914 0.0600586 29.88 1.01902 29.88 2.20045V27.8C29.88 28.9818 28.8914 29.9401 27.6717 29.9401H2.20832C0.989191 29.9401 0 28.9819 0 27.8004V2.2001V2.20045Z" fill="#9A9A9A"/>
<path d="M9.08026 25.0657V11.6136H4.60899V25.0657H9.08072H9.08026ZM6.84556 9.77723C8.40446 9.77723 9.37497 8.74427 9.37497 7.45336C9.34579 6.13304 8.40446 5.12891 6.87521 5.12891C5.34491 5.12891 4.34544 6.13304 4.34544 7.45325C4.34544 8.74416 5.31561 9.77712 6.81626 9.77712H6.84521L6.84556 9.77723ZM11.5552 25.0657H16.0261V17.5542C16.0261 17.1527 16.0553 16.7501 16.1734 16.4634C16.4965 15.6597 17.2321 14.8279 18.4676 14.8279C20.0851 14.8279 20.7325 16.0614 20.7325 17.8699V25.0657H25.2033V17.3526C25.2033 13.2209 22.9978 11.2982 20.0561 11.2982C17.6444 11.2982 16.5852 12.6462 15.9967 13.5643H16.0264V11.614H11.5554C11.6138 12.876 11.555 25.0661 11.555 25.0661L11.5552 25.0657Z" fill="white"/>
</g>
<defs>
<clipPath id="clip0">
<rect width="29.88" height="30" fill="white"/>
</clipPath>
</defs>
</svg>
