<svg width="29" height="29" viewBox="0 0 29 29" xmlns="http://www.w3.org/2000/svg">
<g id="Linkedin"><path d="M0 2.12715C0 0.985101 0.959945 0.0581055 2.14328 0.0581055H26.8567C28.0405 0.0581055 29 0.985101 29 2.12715V26.8734C29 28.0158 28.0405 28.9421 26.8567 28.9421H2.14328C0.960059 28.9421 0 28.0159 0 26.8737V2.12681V2.12715Z"/></g>
<path d="M8.81283 24.2302V11.2265H4.47325V24.2302H8.81328H8.81283ZM6.64395 9.45139C8.15693 9.45139 9.09886 8.45286 9.09886 7.20498C9.07054 5.92867 8.15693 4.95801 6.67272 4.95801C5.18749 4.95801 4.21746 5.92867 4.21746 7.20487C4.21746 8.45275 5.15905 9.45128 6.61551 9.45128H6.64361L6.64395 9.45139ZM11.2148 24.2302H15.5541V16.9691C15.5541 16.581 15.5824 16.1919 15.697 15.9146C16.0106 15.1378 16.7246 14.3337 17.9237 14.3337C19.4936 14.3337 20.1219 15.5261 20.1219 17.2743V24.2302H24.4611V16.7743C24.4611 12.7803 22.3205 10.9217 19.4655 10.9217C17.1247 10.9217 16.0967 12.2247 15.5255 13.1122H15.5544V11.227H11.2151C11.2717 12.4469 11.2147 24.2306 11.2147 24.2306L11.2148 24.2302Z" fill="white"/>
</svg>
