<svg width="657" height="471" viewBox="0 0 657 471" fill="none" xmlns="http://www.w3.org/2000/svg">
<g opacity="0.504511">
<path fill-rule="evenodd" clip-rule="evenodd" d="M656.149 365.782C665.717 443.455 433.661 494.119 233.925 458.762C34.1884 423.405 -57.4412 285.332 37.8697 211.762C133.18 138.191 646.58 288.109 656.149 365.782Z" fill="#F2F2F2"/>
</g>
<path fill-rule="evenodd" clip-rule="evenodd" d="M274.879 90.1526C282.224 92.2642 288.932 92.4381 291.648 90.9056C298.459 87.0629 291.972 60.1638 283.49 51.147C275.007 42.1303 244.679 45.3359 248.804 66.5989C250.236 73.9787 255.014 79.6266 260.929 83.6953L262.921 123.413L286.364 117.132L274.879 90.1526Z" fill="#B28B67"/>
<path fill-rule="evenodd" clip-rule="evenodd" d="M269.034 63.6488C270.254 60.0911 271.584 57.2702 273.759 55.2564C284.108 52.6575 284.821 50.4896 283.155 44.2724C281.172 43.5292 274.762 43.1005 268.033 44.2996C264.421 44.24 260.495 45.4854 257.094 48.1105C252.726 50.7161 249.496 54.6722 249.175 60.5447C245.732 73.2792 253.661 83.4505 261.253 85.6164C262.442 83.0898 263.427 80.6862 264.271 78.4119C262.897 77.6413 261.824 76.3396 261.384 74.6991C260.518 71.4675 262.44 68.1448 265.677 67.2775C265.915 67.2137 266.153 67.165 266.391 67.1308C267.62 71.1321 271.882 84.6409 274.728 88.9672C278.084 94.0677 289.284 92.5399 293.062 91.5277C296.324 90.6534 295.387 87.5984 294.715 85.409C294.618 85.0937 294.526 84.7963 294.454 84.526C294.303 83.9612 293.567 84.1598 292.737 84.3842C291.658 84.6756 290.418 85.0104 290.086 83.7739C289.725 82.426 291.314 80.8922 292.735 79.5197C293.622 78.6634 294.444 77.8699 294.687 77.2235C295.453 75.1842 295.247 72.7656 293.4 73.2606C292.39 73.5312 291.16 74.4836 289.681 75.6294C287.448 77.3592 284.645 79.5298 281.171 80.4607C275.432 81.9985 269.113 63.8756 269.034 63.6488Z" fill="#191847"/>
<path fill-rule="evenodd" clip-rule="evenodd" d="M220.964 236.592H290.996L300.173 349H195.924L220.964 236.592Z" fill="#C5CFD6"/>
<path fill-rule="evenodd" clip-rule="evenodd" d="M220.964 236.592H242.503L255.394 349H195.924L220.964 236.592Z" fill="black" fill-opacity="0.1"/>
<path fill-rule="evenodd" clip-rule="evenodd" d="M329.474 258.862C321.605 275.552 309.307 316.068 309.307 316.068L319.747 320.838C319.747 320.838 346.237 278.249 362.425 249.135C361.671 255.689 360.903 263.068 360.191 270.824C358.504 289.2 360.19 328.9 361.098 340.368C361.668 347.575 371.461 346.065 372.375 340.349C372.53 339.381 373.161 335.982 374.103 330.91C378.72 306.043 390.803 240.959 390.824 225.023C390.833 218.611 378.305 212.851 370.839 217.334C365.71 211.862 356.003 208.707 350.426 217.747C346.881 223.494 338.458 239.81 329.474 258.862Z" fill="#B28B67"/>
<path fill-rule="evenodd" clip-rule="evenodd" d="M310.054 301.068L345.886 216.184C354.47 202.375 378.538 218.994 375.61 227.003C368.964 245.185 335.164 304.05 333.184 309.467L310.054 301.068Z" fill="#69A1AC"/>
<path fill-rule="evenodd" clip-rule="evenodd" d="M310.867 311.258C310.17 310.317 308.829 310.092 307.935 310.849C306.464 312.096 304.45 313.931 303.708 315.218C302.482 317.341 300.837 321.824 300.837 321.824C303.301 323.246 345.116 347.388 345.116 347.388C345.116 347.388 350.137 342.679 346.681 340.077C343.225 337.475 340.977 335.688 340.977 335.688L325.75 314.709C325.419 314.253 324.777 314.16 324.33 314.504L321.231 316.891C321.231 316.891 316.861 316.509 314.709 315.267C313.448 314.539 311.918 312.676 310.867 311.258Z" fill="#E4E4E4"/>
<path fill-rule="evenodd" clip-rule="evenodd" d="M361.504 334.835C360.43 334.369 359.156 334.845 358.76 335.947C358.109 337.762 357.283 340.358 357.283 341.844C357.283 344.296 358.1 349 358.1 349C360.945 349 409.229 349 409.229 349C409.229 349 411.222 342.411 406.928 341.886C402.635 341.361 399.794 340.937 399.794 340.937L376.118 330.382C375.603 330.153 375.001 330.393 374.786 330.914L373.295 334.531C373.295 334.531 369.32 336.386 366.835 336.386C365.379 336.386 363.123 335.537 361.504 334.835Z" fill="#E4E4E4"/>
<path fill-rule="evenodd" clip-rule="evenodd" d="M393.336 231.546C393.336 255.629 381.898 311.806 381.891 317.109L357.283 317.128C357.283 317.128 362.686 241.938 361.115 241.128C359.544 240.318 296.706 247.402 277.86 247.402C250.684 247.402 239.442 230.265 238.53 198.518H292.364C303.326 199.691 360.5 211.223 381.734 215.188C390.824 216.885 393.336 224.911 393.336 231.546Z" fill="#89C5CC"/>
<path fill-rule="evenodd" clip-rule="evenodd" d="M365.559 97.5599L330.097 102.992L336.751 118.686L365.395 106.834C377.848 107.834 383.854 107.436 383.414 105.64C383.042 104.126 381.713 103.69 380.488 103.288C379.534 102.975 378.644 102.683 378.32 101.919C377.579 100.173 381.557 96.4568 385.482 93.0921C389.408 89.7273 386.724 89.1677 385.044 89.2457C379.096 90.7393 372.601 93.5107 365.559 97.5599ZM356.381 187.27L327.465 166.036L321.073 181.838L349.708 193.712C357.806 203.225 362.334 207.19 363.293 205.609C364.101 204.275 363.469 203.027 362.888 201.877C362.434 200.981 362.011 200.146 362.323 199.376C363.034 197.617 368.474 197.802 373.629 198.199C378.784 198.595 377.281 196.302 376.038 195.169C370.776 192.019 364.224 189.386 356.381 187.27Z" fill="#B28B67"/>
<path fill-rule="evenodd" clip-rule="evenodd" d="M282.551 108.852C298.298 138.214 321.068 160.721 354.079 184.119L341.58 198.213C304.722 184.515 285.269 176.251 275.716 148.51C273.318 141.548 271.643 119.353 270.205 107.675L282.551 108.852Z" fill="#E87613"/>
<path fill-rule="evenodd" clip-rule="evenodd" d="M238.53 206.677H308.331C308.331 206.677 284.615 134.344 284.1 107.388C284.083 106.472 282.391 104.857 281.642 105.069C273.431 107.388 264.068 103.334 264.068 103.334C247.52 129.948 241.798 162.715 238.53 206.677Z" fill="#F2F2F2"/>
<path fill-rule="evenodd" clip-rule="evenodd" d="M281.577 143.938C292.479 190.702 291.976 228.983 267.908 228.983H230.689C224.778 189.257 240.314 134.177 254.716 106.395C255.266 105.334 256.437 103.334 259.196 103.334H270.01C270.015 103.349 270.02 103.363 270.024 103.377C273.279 103.404 276.863 103.523 280.744 103.652C300.724 104.315 328.584 105.24 359.933 95.1757L363.629 113.645C335.334 131.843 306.682 145.94 281.577 143.938Z" fill="#FF9B21"/>
<g opacity="0.5">
<path fill-rule="evenodd" clip-rule="evenodd" d="M163.231 219.42C165.17 216.655 168.768 209.634 171.497 208.646C173.255 208.01 172.742 214.592 172.764 215.847C172.848 220.702 172.376 225.527 171.792 230.342C170.74 239.025 167.301 246.759 162.585 254.149C160.157 257.952 157.311 261.801 153.368 264.174C151.553 265.267 149.369 265.45 147.576 266.391C145.489 267.487 146.626 266.601 145.685 268.776C144.378 271.797 143.96 275.693 143.356 278.915C140.581 293.709 133.861 371.91 135.026 386.958C135.129 388.292 133.27 388.611 133.177 386.983C132.683 378.349 136.953 318.563 139.108 299.011C141.262 279.459 143.442 262.186 145.628 255.422C148.28 247.216 153.069 237.347 157.056 229.694C158.908 226.138 160.927 222.705 163.231 219.42Z" fill="#69A1AC"/>
<path fill-rule="evenodd" clip-rule="evenodd" d="M177.622 315.313C182.668 311.609 188.129 318.599 183.563 322.304C181.039 324.352 178.401 323.623 176.915 321.917C175.951 323.092 175.049 324.321 174.181 325.359C171.539 328.523 169.042 331.762 166.655 335.076C161.697 341.961 157.448 349.236 153.005 356.377C148.621 363.425 144.272 370.509 140.298 377.736C136.931 383.859 132.444 391.062 131.292 397.774C133.041 383.538 139.676 369.855 147.578 357.305C155.416 344.859 164.41 331.265 176.546 321.443C175.311 319.626 175.277 317.034 177.622 315.313Z" fill="#C1DEE2"/>
<path fill-rule="evenodd" clip-rule="evenodd" d="M81.8827 280.594C84.7061 281.146 89.3195 287.533 91.6468 289.967C94.4126 292.859 96.922 295.941 99.2873 299.17C104.379 306.122 108.933 313.512 112.806 321.219C119.119 333.784 124.176 346.681 127.847 360.363C130.094 368.738 131.548 377.419 132.41 386.039C132.573 387.664 134.278 400.198 131.822 400.535C129.613 400.84 130.295 391.019 130.189 389.683C128.984 374.611 125.376 359.947 120.356 345.741C119.263 342.646 118.247 338.856 116.499 336.071C115.24 334.065 116.49 334.765 114.277 334.006C112.377 333.353 110.212 333.513 108.267 332.714C104.04 330.981 100.656 327.616 97.689 324.232C91.9238 317.654 87.3552 310.537 84.9738 302.109C83.6528 297.435 82.4388 292.735 81.7651 287.917C81.5908 286.672 80.0642 280.239 81.8827 280.594Z" fill="#69A1AC"/>
<path fill-rule="evenodd" clip-rule="evenodd" d="M93.0246 174.328C103.66 192.772 112.399 213.033 118.042 233.553C121.461 245.986 123.852 258.744 126.228 271.41C129.906 291.022 133.386 310.633 134.375 330.593C135.371 350.669 137.34 373.824 130.766 393.16C134.05 373.529 130.924 352.632 130.37 332.879C130.106 323.449 129.339 314.111 128.334 304.736C127.358 295.642 125.764 286.591 124.279 277.569C123.556 273.175 122.797 268.787 122.023 264.402C121.793 263.094 121.695 259.211 120.865 258.318C120.03 257.418 115.768 257.051 114.43 256.391C111.736 255.062 109.201 253.173 106.958 251.178C102.659 247.352 98.9181 242.354 95.9657 237.427C89.1347 226.027 86.4037 212.114 86.5417 198.911C86.5682 196.347 90.6909 168.743 89.0351 168.363C89.1348 168.246 89.2291 168.125 89.318 168C90.5716 170.099 91.8016 172.212 93.0246 174.328Z" fill="#89C5CC"/>
<path fill-rule="evenodd" clip-rule="evenodd" d="M207.812 240.848C207.976 240.612 209.044 238.965 208.507 239.071C209.602 238.856 207 240.886 209.729 239.641C208.433 240.864 209.181 242.453 209.198 244.1C209.227 246.774 208.779 249.425 208.276 252.041C207.48 256.176 206.295 260.197 204.574 264.043C200.825 272.425 194.457 280.494 186.898 285.735C183.167 288.322 179.509 289.203 175.253 290.394C172.565 291.146 172.352 292.537 170.925 295.146C167.954 300.579 165.036 305.993 162.416 311.609C159.288 318.316 156.251 325.031 153.386 331.855C143.735 354.845 135.881 378.662 131.756 403.311C131.655 388.785 135.015 373.826 139.253 359.98C142.341 349.893 146.36 340.169 150.647 330.544C151.686 328.212 153.26 325.213 153.702 322.638C154.011 320.834 153.066 319.1 152.634 317.2C150.948 309.8 151.069 301.51 152.549 294.071C154.181 285.868 158.901 282.061 166.886 280.899C169.806 280.474 173.518 280.629 176.196 279.384C179.113 278.028 180.316 273.572 181.975 270.711C186.431 263.026 191.725 255.655 197.804 249.18C199.487 247.387 201.297 245.732 203.218 244.199C204.429 243.232 206.987 242.04 207.812 240.848Z" fill="#89C5CC"/>
<path fill-rule="evenodd" clip-rule="evenodd" d="M116.544 393.997C116.458 393.408 116.414 393.114 116.402 392.873C116.269 390.205 118.256 387.904 120.914 387.647C121.154 387.623 121.452 387.623 122.047 387.623H142.844C143.439 387.623 143.736 387.623 143.977 387.647C146.635 387.904 148.622 390.205 148.489 392.873C148.477 393.114 148.433 393.408 148.346 393.997L147.455 400.042C146.357 407.485 139.97 413 132.445 413C124.921 413 118.534 407.485 117.436 400.042L116.544 393.997Z" fill="#C1DEE2"/>
</g>
</svg>
