<svg width="474" height="365" viewBox="0 0 474 365" fill="none" xmlns="http://www.w3.org/2000/svg">
<path fill-rule="evenodd" clip-rule="evenodd" d="M337.078 64.7514C331.624 68.1103 326.265 69.7332 323.75 69.0707C317.442 67.4094 316.862 43.8321 321.743 34.5372C326.623 25.2423 351.714 21.191 352.979 39.6072C353.418 45.9988 350.791 51.703 346.91 56.3575L353.869 89.4971H333.655L337.078 64.7514Z" fill="#B28B67"/>
<path fill-rule="evenodd" clip-rule="evenodd" d="M336.068 41.6411C334.319 38.9811 332.641 36.9522 330.457 35.7739C321.57 35.9174 320.53 34.2897 320.53 28.8035C321.965 27.7541 327.03 25.9871 332.701 25.4901C335.595 24.6441 339.022 24.8032 342.324 26.2143C346.4 27.3959 349.851 29.9405 351.376 34.7046C356.891 44.4294 352.705 54.5526 347.063 58.0107C345.562 56.193 344.251 54.4314 343.082 52.7451C344.021 51.8075 344.604 50.499 344.604 49.0514C344.604 46.1998 342.342 43.8881 339.551 43.8881C339.346 43.8881 339.143 43.9006 338.944 43.9249C338.819 47.4902 338.302 59.5524 336.944 63.7422C335.344 68.6819 326.004 69.8948 322.747 69.8948C319.933 69.8948 320.029 67.1727 320.098 65.2218C320.108 64.9409 320.117 64.6759 320.117 64.4374C320.117 63.939 320.751 63.9403 321.468 63.9417C322.399 63.9436 323.469 63.9458 323.469 62.8547C323.469 61.6653 321.86 60.7529 320.42 59.9365C319.522 59.4272 318.69 58.9552 318.355 58.4766C317.3 56.9665 316.944 54.9299 318.537 54.9299C319.408 54.9299 320.602 55.4427 322.039 56.0597C324.209 56.9912 326.932 58.1601 329.927 58.1601C334.876 58.1601 336.053 41.8448 336.068 41.6411Z" fill="#191847"/>
<path fill-rule="evenodd" clip-rule="evenodd" d="M368.32 163.533L338.408 270.78L316.584 349.827H300.667L323.858 163.533H368.32Z" fill="#191847"/>
<path fill-rule="evenodd" clip-rule="evenodd" d="M376.319 163.533C377.011 218.81 379.37 248.959 380.097 253.981C380.823 259.003 391.807 290.952 413.048 349.827H396.559C369.517 293.346 354.422 261.397 351.273 253.981C348.124 246.564 338.405 216.415 323.768 163.533H376.319Z" fill="#2F3676"/>
<path fill-rule="evenodd" clip-rule="evenodd" d="M414.522 365L413.697 347.298L396.371 347.298C384.048 356.149 364.195 361.628 364.195 361.628V365H395.546L406.272 363.314V365H414.522Z" fill="#191847"/>
<path fill-rule="evenodd" clip-rule="evenodd" d="M318.818 365L317.993 347.298L300.667 347.298C288.344 356.149 268.491 361.628 268.491 361.628V365H299.842L310.567 363.314V365H318.818Z" fill="#191847"/>
<path fill-rule="evenodd" clip-rule="evenodd" d="M276.652 181.7L297.046 154.8L306.798 167.521L284.261 185.823C279.462 196.605 276.432 201.401 275.171 200.211C274.108 199.208 274.353 197.906 274.579 196.706C274.754 195.772 274.918 194.9 274.443 194.28C273.358 192.864 268.547 194.455 264.044 196.164C259.541 197.872 260.296 195.39 261.117 194.034C265.01 189.789 270.189 185.678 276.652 181.7ZM420.616 195.857C417.477 191.151 402.373 143.056 402.373 143.056L384.953 145.629C384.953 145.629 408.407 196.46 410.141 199.527C412.393 203.512 410.399 210.058 409.046 214.496C408.837 215.183 408.643 215.819 408.482 216.387C411.321 217.223 412.402 215.565 413.541 213.817C414.828 211.843 416.189 209.755 420.243 211.014C421.81 211.501 423.315 212.126 424.785 212.736C429.864 214.846 434.529 216.784 439.889 212.248C440.739 211.529 441.455 209.178 438.755 207.809C432.028 204.399 422.151 198.158 420.616 195.857Z" fill="#B28B67"/>
<path fill-rule="evenodd" clip-rule="evenodd" d="M342.581 75.5764L335.195 75.3504C327.129 108.769 309.404 140.628 282.02 170.925L309.385 196.538C335.259 155.282 349.104 114.563 342.581 75.5764Z" fill="#191847"/>
<path fill-rule="evenodd" clip-rule="evenodd" d="M386.736 163.501L322.513 172.723C322.513 172.723 337.219 114.172 331.897 75.4872L350.865 69.7615C369.525 92.5491 378.055 122.68 386.736 163.501Z" fill="#DDE3E9"/>
<path fill-rule="evenodd" clip-rule="evenodd" d="M419.789 187.381C401.649 107.574 351.291 69.7005 351.291 69.7005L351.277 69.7167C351.274 69.7124 351.271 69.7081 351.268 69.7038L350.003 69.8854C347.744 70.2911 343.128 71.1655 343.128 71.1655L340.324 85.4815C343.013 110.541 345.483 187.299 345.483 187.299L387.52 181.263C387.926 184.741 388.251 188.279 388.486 191.876L419.789 187.381Z" fill="#2F3676"/>
<path fill-rule="evenodd" clip-rule="evenodd" d="M387.559 181.599C385.818 166.452 382.554 152.463 378.599 139.948C379.547 155.337 379.672 174 375.848 183.281L387.559 181.599Z" fill="black" fill-opacity="0.1"/>
<path fill-rule="evenodd" clip-rule="evenodd" d="M374.63 156.565L352.517 149.703L353.871 159.545L374.63 156.565Z" fill="white" fill-opacity="0.2"/>
<path fill-rule="evenodd" clip-rule="evenodd" d="M101.841 165.152L129.729 270.242L147.107 358.607L156.505 359.335L134.14 167.655L101.841 165.152Z" fill="#D4A181"/>
<path fill-rule="evenodd" clip-rule="evenodd" d="M71.7789 165.798C79.8346 200.915 85.8089 249.417 85.4765 251.816C85.1442 254.214 39.6306 322.207 39.6306 322.207L47.7835 328.311C47.7835 328.311 105.623 265.292 107.342 258.392C109.06 251.492 105.931 192.754 106.198 157.157L71.7789 165.798Z" fill="#D4A181"/>
<path fill-rule="evenodd" clip-rule="evenodd" d="M40.3138 319.938C39.7915 318.843 38.5939 318.363 37.6698 318.985C36.3844 319.851 34.7398 321.065 34.0454 322.032C32.8275 323.726 31.0068 327.459 31.0068 327.459C32.8021 329.136 63.2772 357.6 63.2772 357.6C63.2772 357.6 67.8075 354.221 65.3582 351.327C62.909 348.432 61.3267 346.465 61.3267 346.465L51.6825 325.339C51.4396 324.807 50.8641 324.593 50.4053 324.865L47.7834 326.417C47.7834 326.417 44.3534 325.355 42.7848 323.89C41.9205 323.083 40.9822 321.34 40.3138 319.938Z" fill="#E4E4E4"/>
<path fill-rule="evenodd" clip-rule="evenodd" d="M145.767 352.358C144.635 351.829 143.248 352.338 142.883 353.534C142.389 355.148 141.835 357.237 141.835 358.478C141.835 360.713 142.488 365 142.488 365C144.763 365 183.383 365 183.383 365C183.383 365 184.977 358.995 181.543 358.516C178.108 358.038 175.837 357.652 175.837 357.652L157.156 348.162C156.62 347.89 155.967 348.149 155.763 348.714L154.642 351.813C154.642 351.813 151.462 353.503 149.475 353.503C148.469 353.503 146.987 352.927 145.767 352.358Z" fill="#E4E4E4"/>
<path fill-rule="evenodd" clip-rule="evenodd" d="M121.086 348.008L165.898 342.466L132.687 167.542H92.55L121.086 348.008Z" fill="#69A1AC"/>
<path fill-rule="evenodd" clip-rule="evenodd" d="M31.5112 298.823L60.9053 338.468C60.9053 338.468 107.346 280.673 115.055 263.045C122.764 245.418 128.915 167.542 128.915 167.542H83.729C83.729 167.542 80.3688 236.054 79.199 239.242C78.0292 242.43 31.5112 298.823 31.5112 298.823Z" fill="#89C5CC"/>
<path fill-rule="evenodd" clip-rule="evenodd" d="M108.759 33.6995C98.7112 33.6995 90.5655 41.8452 90.5655 51.8934V68.3813C90.5655 77.4956 97.2673 85.0446 106.012 86.3692C106.016 86.4437 106.02 86.5186 106.024 86.5939H129.474C133.288 82.7862 129.331 57.9189 126.521 47.9307C124.712 39.788 117.447 33.6995 108.759 33.6995Z" fill="#191847"/>
<path fill-rule="evenodd" clip-rule="evenodd" d="M109.112 73.5584C114.348 76.7831 119.493 78.3412 121.908 77.7051C127.964 76.1102 128.521 53.4744 123.835 44.5507C119.149 35.627 95.0601 31.7375 93.8459 49.4182C93.4245 55.5546 95.9464 61.031 99.6724 65.4996L92.9914 97.3159H112.398L109.112 73.5584Z" fill="#D4A181"/>
<path fill-rule="evenodd" clip-rule="evenodd" d="M91.2781 49.5212C91.8415 48.952 92.3867 48.4012 92.9276 47.9082L92.9015 47.266C92.9015 47.266 98.9925 34.5256 108.356 34.5256C117.712 34.5256 120.67 38.9694 123.186 42.7468L123.192 42.757C121.877 47.3689 117.912 49.2348 113.428 51.345C111.498 52.2534 109.472 53.2071 107.519 54.4445C106.754 53.8096 105.779 53.4291 104.716 53.4291C102.26 53.4291 100.269 55.4635 100.269 57.9731C100.269 60.4827 102.26 62.5171 104.716 62.5171C104.784 62.5171 104.852 62.5156 104.919 62.5125C105.813 72.3259 105.454 83.5326 102.79 86.1928H79.3397C78.6665 74.2429 81.6921 70.8339 84.7837 67.3505C87.6928 64.0729 90.6603 60.7294 90.6603 50.1428C90.8691 49.9345 91.0748 49.7267 91.2781 49.5213L91.2781 49.5212Z" fill="#191847"/>
<path fill-rule="evenodd" clip-rule="evenodd" d="M20.2014 199.098C23.3813 194.681 42.5588 147.218 42.5588 147.218L56.8192 149.828C56.8192 149.828 31.9144 200.073 30.1421 202.962C27.8399 206.714 29.5311 213.064 30.6778 217.369C30.8552 218.035 31.0196 218.652 31.1542 219.203C28.397 219.913 27.4158 218.286 26.3814 216.571C25.2131 214.634 23.9768 212.585 20.0369 213.662C18.5147 214.078 17.0468 214.63 15.6128 215.168C10.6592 217.028 6.10851 218.737 1.11355 214.209C0.32167 213.491 -0.285576 211.211 2.35666 209.984C8.93944 206.928 18.6468 201.257 20.2014 199.098ZM185.007 174.597L159.216 155.319L153.488 169.703L179.04 180.467C186.258 189.11 190.297 192.712 191.155 191.271C191.878 190.057 191.315 188.922 190.797 187.877C190.394 187.063 190.017 186.303 190.296 185.602C190.934 184.002 195.791 184.162 200.393 184.516C204.995 184.87 203.657 182.785 202.548 181.756C197.854 178.898 192.007 176.512 185.007 174.597Z" fill="#B28B67"/>
<path fill-rule="evenodd" clip-rule="evenodd" d="M112.612 86.6084L103.964 90.2334C104.054 92.5412 104.045 95.8242 104.034 99.5854C104 111.39 103.953 127.907 106.937 133.768C117.276 154.073 138.509 164.648 162.158 176.427C165.328 178.005 168.541 179.606 171.777 181.254L178.287 167.681C177.537 167.138 176.795 166.592 176.058 166.044C177.079 165.677 177.931 164.851 178.303 163.722C178.945 161.776 177.921 159.667 176.017 159.012C172.147 157.68 168.537 157.118 165.219 157.361C140.981 136.498 124.666 112.071 112.612 86.6084Z" fill="#DB2721"/>
<path fill-rule="evenodd" clip-rule="evenodd" d="M73.5845 179.034C73.5845 179.034 111.717 183.314 133.613 179.034C135.422 178.68 135.343 170.715 134.504 168.539C121.443 134.661 112.851 109.861 112.851 86.3298C109.257 88.2484 100.269 86.9049 100.269 86.9049C84.1663 111.154 76.7644 138.978 73.5845 179.034Z" fill="#DDE3E9"/>
<path fill-rule="evenodd" clip-rule="evenodd" d="M25.2229 179.443C47.6934 113.823 93.7803 84.9231 93.7803 84.9231L98.1482 84.9231L102.977 84.9231C101.935 98.9977 106.829 119.479 112.507 143.239C121.587 181.237 132.672 227.621 124.682 269.59C114.858 271.832 103.314 270.302 90.818 268.645C72.7825 266.254 52.7616 263.599 33.0587 271.641C33.8183 254.828 43.4259 236.217 52.9901 217.69C59.0508 205.95 65.0941 194.243 68.8574 183.05C67.9928 182.233 67.5395 181.012 67.7562 179.756L68.2027 177.169C68.4824 175.548 69.7925 174.371 71.3435 174.192C71.6146 172.953 71.8483 171.723 72.0414 170.502C73.0289 164.257 72.3985 158.086 71.7752 151.984C71.433 148.633 71.0929 145.304 71.0239 141.995C60.194 151.852 47.0844 169.039 36.0224 198.83L20.7501 194.238C21.3341 192.022 21.9461 189.842 22.5838 187.697C20.8161 186.702 18.732 181.975 20.2209 181.187C21.794 180.354 23.463 179.775 25.2229 179.443Z" fill="#FF4133"/>
<path fill-rule="evenodd" clip-rule="evenodd" d="M97.12 85.7493L92.9482 98.8571L101.349 108.683L93.7568 116.405L112.125 148.539L89.6628 116.469L97.12 108.683L89.6628 99.9997L97.12 85.7493Z" fill="black" fill-opacity="0.1"/>
<path fill-rule="evenodd" clip-rule="evenodd" d="M106.738 160.932C108.524 160.932 109.972 159.452 109.972 157.627C109.972 155.802 108.524 154.323 106.738 154.323C104.952 154.323 103.503 155.802 103.503 157.627C103.503 159.452 104.952 160.932 106.738 160.932ZM110.781 179.934C112.567 179.934 114.016 178.455 114.016 176.63C114.016 174.804 112.567 173.325 110.781 173.325C108.995 173.325 107.547 174.804 107.547 176.63C107.547 178.455 108.995 179.934 110.781 179.934ZM114.824 195.632C114.824 197.457 113.376 198.936 111.59 198.936C109.803 198.936 108.355 197.457 108.355 195.632C108.355 193.807 109.803 192.327 111.59 192.327C113.376 192.327 114.824 193.807 114.824 195.632Z" fill="black" fill-opacity="0.4"/>
</svg>
