<svg width="634" height="521" viewBox="0 0 634 521" fill="none" xmlns="http://www.w3.org/2000/svg">
<g opacity="0.504511">
<path fill-rule="evenodd" clip-rule="evenodd" d="M597.537 418.182C590.098 495.973 375.972 503.113 207.774 431.955C39.576 360.796 -12.7321 208.861 85.9759 154.275C184.684 99.69 604.976 340.391 597.537 418.182Z" fill="#F2F2F2"/>
</g>
<path fill-rule="evenodd" clip-rule="evenodd" d="M331.879 90.1526C339.224 92.2642 345.932 92.4381 348.648 90.9056C355.459 87.0629 348.972 60.1638 340.49 51.147C332.007 42.1303 301.679 45.3359 305.804 66.5989C307.236 73.9787 312.014 79.6266 317.929 83.6953L319.921 123.413L343.364 117.132L331.879 90.1526Z" fill="#B28B67"/>
<path fill-rule="evenodd" clip-rule="evenodd" d="M326.034 63.6488C327.254 60.0911 328.584 57.2702 330.759 55.2564C341.108 52.6575 341.821 50.4896 340.155 44.2724C338.172 43.5292 331.762 43.1005 325.033 44.2996C321.421 44.24 317.495 45.4854 314.094 48.1105C309.726 50.7161 306.496 54.6722 306.175 60.5447C302.732 73.2792 310.661 83.4505 318.253 85.6164C319.442 83.0898 320.427 80.6862 321.271 78.4119C319.897 77.6413 318.824 76.3396 318.384 74.6991C317.518 71.4675 319.44 68.1448 322.677 67.2775C322.915 67.2137 323.153 67.165 323.391 67.1308C324.62 71.1321 328.882 84.6409 331.728 88.9672C335.084 94.0677 346.284 92.5399 350.062 91.5277C353.324 90.6534 352.387 87.5984 351.715 85.409C351.618 85.0937 351.526 84.7963 351.454 84.526C351.303 83.9612 350.567 84.1598 349.737 84.3842C348.658 84.6756 347.418 85.0104 347.086 83.7739C346.725 82.426 348.314 80.8922 349.735 79.5197C350.622 78.6634 351.444 77.8699 351.687 77.2235C352.453 75.1842 352.247 72.7656 350.4 73.2606C349.39 73.5312 348.16 74.4836 346.681 75.6294C344.448 77.3592 341.645 79.5298 338.171 80.4607C332.432 81.9985 326.113 63.8756 326.034 63.6488Z" fill="#191847"/>
<path fill-rule="evenodd" clip-rule="evenodd" d="M277.964 236.592H347.996L357.173 349H252.924L277.964 236.592Z" fill="#C5CFD6"/>
<path fill-rule="evenodd" clip-rule="evenodd" d="M277.964 236.592H299.503L312.394 349H252.924L277.964 236.592Z" fill="black" fill-opacity="0.1"/>
<path fill-rule="evenodd" clip-rule="evenodd" d="M386.474 258.862C378.605 275.552 366.307 316.068 366.307 316.068L376.747 320.838C376.747 320.838 403.237 278.249 419.425 249.135C418.671 255.689 417.903 263.068 417.191 270.824C415.504 289.2 417.19 328.9 418.098 340.368C418.668 347.575 428.461 346.065 429.375 340.349C429.53 339.381 430.161 335.982 431.103 330.91C435.72 306.043 447.803 240.959 447.824 225.023C447.833 218.611 435.305 212.851 427.839 217.334C422.71 211.862 413.003 208.707 407.426 217.747C403.881 223.494 395.458 239.81 386.474 258.862Z" fill="#B28B67"/>
<path fill-rule="evenodd" clip-rule="evenodd" d="M367.054 301.068L402.886 216.184C411.47 202.375 435.538 218.994 432.61 227.003C425.964 245.185 392.164 304.05 390.184 309.467L367.054 301.068Z" fill="#69A1AC"/>
<path fill-rule="evenodd" clip-rule="evenodd" d="M367.867 311.258C367.17 310.317 365.829 310.092 364.935 310.849C363.464 312.096 361.45 313.931 360.708 315.218C359.482 317.341 357.837 321.824 357.837 321.824C360.301 323.246 402.116 347.388 402.116 347.388C402.116 347.388 407.137 342.679 403.681 340.077C400.225 337.475 397.977 335.688 397.977 335.688L382.75 314.709C382.419 314.253 381.777 314.16 381.33 314.504L378.231 316.891C378.231 316.891 373.861 316.509 371.709 315.267C370.448 314.539 368.918 312.676 367.867 311.258Z" fill="#E4E4E4"/>
<path fill-rule="evenodd" clip-rule="evenodd" d="M418.504 334.835C417.43 334.369 416.156 334.845 415.76 335.947C415.109 337.762 414.283 340.358 414.283 341.844C414.283 344.296 415.1 349 415.1 349C417.945 349 466.229 349 466.229 349C466.229 349 468.222 342.411 463.928 341.886C459.635 341.361 456.794 340.937 456.794 340.937L433.118 330.382C432.603 330.153 432.001 330.393 431.786 330.914L430.295 334.531C430.295 334.531 426.32 336.386 423.835 336.386C422.379 336.386 420.123 335.537 418.504 334.835Z" fill="#E4E4E4"/>
<path fill-rule="evenodd" clip-rule="evenodd" d="M450.336 231.546C450.336 255.629 438.898 311.806 438.891 317.109L414.283 317.128C414.283 317.128 419.686 241.938 418.115 241.128C416.544 240.318 353.706 247.402 334.86 247.402C307.684 247.402 296.442 230.265 295.53 198.518H349.364C360.326 199.691 417.5 211.223 438.734 215.188C447.824 216.885 450.336 224.911 450.336 231.546Z" fill="#89C5CC"/>
<path fill-rule="evenodd" clip-rule="evenodd" d="M422.559 97.5599L387.097 102.992L393.751 118.686L422.395 106.834C434.848 107.834 440.854 107.436 440.413 105.64C440.042 104.126 438.713 103.69 437.488 103.288C436.534 102.975 435.644 102.683 435.32 101.919C434.579 100.173 438.557 96.4568 442.482 93.0921C446.408 89.7273 443.724 89.1677 442.044 89.2457C436.096 90.7393 429.601 93.5107 422.559 97.5599ZM413.381 187.27L384.465 166.036L378.073 181.838L406.708 193.712C414.806 203.225 419.334 207.19 420.293 205.609C421.101 204.275 420.469 203.027 419.887 201.877C419.434 200.981 419.011 200.146 419.323 199.376C420.034 197.617 425.474 197.802 430.629 198.199C435.784 198.595 434.281 196.302 433.038 195.169C427.776 192.019 421.224 189.386 413.381 187.27Z" fill="#B28B67"/>
<path fill-rule="evenodd" clip-rule="evenodd" d="M339.551 108.852C355.298 138.214 378.068 160.721 411.079 184.119L398.58 198.213C361.722 184.515 342.269 176.251 332.716 148.51C330.318 141.548 328.643 119.353 327.205 107.675L339.551 108.852Z" fill="#E87613"/>
<path fill-rule="evenodd" clip-rule="evenodd" d="M295.53 206.677H365.331C365.331 206.677 341.615 134.344 341.1 107.388C341.083 106.472 339.391 104.857 338.642 105.069C330.431 107.388 321.068 103.334 321.068 103.334C304.52 129.948 298.798 162.715 295.53 206.677Z" fill="#F2F2F2"/>
<path fill-rule="evenodd" clip-rule="evenodd" d="M338.577 143.938C349.479 190.702 348.976 228.983 324.908 228.983H287.689C281.778 189.257 297.314 134.177 311.716 106.395C312.266 105.334 313.437 103.334 316.196 103.334H327.01C327.015 103.349 327.02 103.363 327.024 103.377C330.279 103.404 333.863 103.523 337.744 103.652C357.724 104.315 385.584 105.24 416.933 95.1757L420.629 113.645C392.334 131.843 363.682 145.94 338.577 143.938Z" fill="#FF9B21"/>
<g opacity="0.5">
<path fill-rule="evenodd" clip-rule="evenodd" d="M220.231 219.42C222.17 216.655 225.768 209.634 228.497 208.646C230.255 208.01 229.742 214.592 229.764 215.847C229.848 220.702 229.376 225.527 228.792 230.342C227.74 239.025 224.301 246.759 219.585 254.149C217.157 257.952 214.311 261.801 210.368 264.174C208.553 265.267 206.369 265.45 204.576 266.391C202.489 267.487 203.626 266.601 202.685 268.776C201.378 271.797 200.96 275.693 200.356 278.915C197.581 293.709 190.861 371.91 192.026 386.958C192.129 388.292 190.27 388.611 190.177 386.983C189.683 378.349 193.953 318.563 196.108 299.011C198.262 279.459 200.442 262.186 202.628 255.422C205.28 247.216 210.069 237.347 214.056 229.694C215.908 226.138 217.927 222.705 220.231 219.42Z" fill="#69A1AC"/>
<path fill-rule="evenodd" clip-rule="evenodd" d="M234.622 315.313C239.668 311.609 245.129 318.599 240.563 322.304C238.039 324.352 235.401 323.623 233.915 321.917C232.951 323.092 232.049 324.321 231.181 325.359C228.539 328.523 226.042 331.762 223.655 335.076C218.697 341.961 214.448 349.236 210.005 356.377C205.621 363.425 201.272 370.509 197.298 377.736C193.931 383.859 189.444 391.062 188.292 397.774C190.041 383.538 196.676 369.855 204.578 357.305C212.416 344.859 221.41 331.265 233.546 321.443C232.311 319.626 232.277 317.034 234.622 315.313Z" fill="#C1DEE2"/>
<path fill-rule="evenodd" clip-rule="evenodd" d="M138.883 280.594C141.706 281.146 146.319 287.533 148.647 289.967C151.413 292.859 153.922 295.941 156.287 299.17C161.379 306.122 165.933 313.512 169.806 321.219C176.119 333.784 181.176 346.681 184.847 360.363C187.094 368.738 188.548 377.419 189.41 386.039C189.573 387.664 191.278 400.198 188.822 400.535C186.613 400.84 187.295 391.019 187.189 389.683C185.984 374.611 182.376 359.947 177.356 345.741C176.263 342.646 175.247 338.856 173.499 336.071C172.24 334.065 173.49 334.765 171.277 334.006C169.377 333.353 167.212 333.513 165.267 332.714C161.04 330.981 157.656 327.616 154.689 324.232C148.924 317.654 144.355 310.537 141.974 302.109C140.653 297.435 139.439 292.735 138.765 287.917C138.591 286.672 137.064 280.239 138.883 280.594Z" fill="#69A1AC"/>
<path fill-rule="evenodd" clip-rule="evenodd" d="M150.025 174.328C160.66 192.772 169.399 213.033 175.042 233.553C178.461 245.986 180.852 258.744 183.228 271.41C186.906 291.022 190.386 310.633 191.375 330.593C192.371 350.669 194.34 373.824 187.766 393.16C191.05 373.529 187.924 352.632 187.37 332.879C187.106 323.449 186.339 314.111 185.334 304.736C184.358 295.642 182.764 286.591 181.279 277.569C180.556 273.175 179.797 268.787 179.023 264.402C178.793 263.094 178.695 259.211 177.865 258.318C177.03 257.418 172.768 257.051 171.43 256.391C168.736 255.062 166.201 253.173 163.958 251.178C159.659 247.352 155.918 242.354 152.966 237.427C146.135 226.027 143.404 212.114 143.542 198.911C143.568 196.347 147.691 168.743 146.035 168.363C146.135 168.246 146.229 168.125 146.318 168C147.572 170.099 148.802 172.212 150.025 174.328Z" fill="#89C5CC"/>
<path fill-rule="evenodd" clip-rule="evenodd" d="M264.812 240.848C264.976 240.612 266.044 238.965 265.507 239.071C266.602 238.856 264 240.886 266.729 239.641C265.433 240.864 266.181 242.453 266.198 244.1C266.227 246.774 265.779 249.425 265.276 252.041C264.48 256.176 263.295 260.197 261.574 264.043C257.825 272.425 251.457 280.494 243.898 285.735C240.167 288.322 236.509 289.203 232.253 290.394C229.565 291.146 229.352 292.537 227.925 295.146C224.954 300.579 222.036 305.993 219.416 311.609C216.288 318.316 213.251 325.031 210.386 331.855C200.735 354.845 192.881 378.662 188.756 403.311C188.655 388.785 192.015 373.826 196.253 359.98C199.341 349.893 203.36 340.169 207.647 330.544C208.686 328.212 210.26 325.213 210.702 322.638C211.011 320.834 210.066 319.1 209.634 317.2C207.948 309.8 208.069 301.51 209.549 294.071C211.181 285.868 215.901 282.061 223.886 280.899C226.806 280.474 230.518 280.629 233.196 279.384C236.113 278.028 237.316 273.572 238.975 270.711C243.431 263.026 248.725 255.655 254.804 249.18C256.487 247.387 258.297 245.732 260.218 244.199C261.429 243.232 263.987 242.04 264.812 240.848Z" fill="#89C5CC"/>
<path fill-rule="evenodd" clip-rule="evenodd" d="M173.544 393.997C173.458 393.408 173.414 393.114 173.402 392.873C173.269 390.205 175.256 387.904 177.914 387.647C178.154 387.623 178.452 387.623 179.047 387.623H199.844C200.439 387.623 200.736 387.623 200.977 387.647C203.635 387.904 205.622 390.205 205.489 392.873C205.477 393.114 205.433 393.408 205.346 393.997L204.455 400.042C203.357 407.485 196.97 413 189.445 413C181.921 413 175.534 407.485 174.436 400.042L173.544 393.997Z" fill="#C1DEE2"/>
</g>
</svg>
