<svg width="679" height="498" viewBox="0 0 679 498" fill="none" xmlns="http://www.w3.org/2000/svg">
<path fill-rule="evenodd" clip-rule="evenodd" d="M560.5 164.673C583.972 164.673 603 154.6 603 142.173C603 129.747 583.972 119.673 560.5 119.673C537.028 119.673 518 129.747 518 142.173C518 154.6 537.028 164.673 560.5 164.673Z" fill="#F2F2F2"/>
<path fill-rule="evenodd" clip-rule="evenodd" d="M610 157.673C610 130.059 587.838 107.673 560.5 107.673C533.162 107.673 511 130.059 511 157.673" fill="#DDE3E9"/>
<rect x="558" width="5" height="115" fill="#DDE3E9"/>
<g opacity="0.7" clip-path="url(#clip0)">
<path fill-rule="evenodd" clip-rule="evenodd" d="M640.744 125C658.289 125 672.512 116.871 672.512 106.842C672.512 96.8139 658.289 88.6843 640.744 88.6843C623.199 88.6843 608.976 96.8139 608.976 106.842C608.976 116.871 623.199 125 640.744 125Z" fill="#F2F2F2"/>
<path fill-rule="evenodd" clip-rule="evenodd" d="M677.744 119.351C677.744 97.0657 661.178 79 640.744 79C620.309 79 603.744 97.0657 603.744 119.351" fill="#DDE3E9"/>
<rect x="638.744" width="5" height="102" fill="#DDE3E9"/>
</g>
<g opacity="0.345889" clip-path="url(#clip1)">
<path fill-rule="evenodd" clip-rule="evenodd" d="M484.296 388.263C481.87 305.916 109.101 125.906 33.774 199.46C-41.5532 273.013 18.2547 422.571 164.666 468.374C311.078 514.176 486.721 470.61 484.296 388.263Z" fill="#F2F2F2"/>
<path fill-rule="evenodd" clip-rule="evenodd" d="M226.488 410.81C227.436 342.368 563.514 183.131 633.104 242.235C702.694 301.339 697.387 437.972 565.007 479.839C432.627 521.707 225.54 479.252 226.488 410.81Z" fill="#DDE3E9"/>
</g>
<defs>
<clipPath id="clip0">
<rect width="76.2561" height="124.929" fill="white" transform="translate(602.744)"/>
</clipPath>
<clipPath id="clip1">
<rect width="678" height="323" fill="white" transform="translate(0 175)"/>
</clipPath>
</defs>
</svg>
